<?xml version="1.0" encoding="UTF-8" standalone="no"?>
<!DOCTYPE svg PUBLIC "-//W3C//DTD SVG 1.1//EN"
 "http://www.w3.org/Graphics/SVG/1.1/DTD/svg11.dtd">
<!-- Generated by graphviz version 2.43.0 (0)
 -->
<!-- Title: %3 Pages: 1 -->
<svg width="1176pt" height="127pt"
 viewBox="0.00 0.00 1176.00 127.00" xmlns="http://www.w3.org/2000/svg" xmlns:xlink="http://www.w3.org/1999/xlink">
<g id="graph0" class="graph" transform="scale(1 1) rotate(0) translate(4 123)">
<title>%3</title>
<polygon fill="white" stroke="transparent" points="-4,4 -4,-123 1172,-123 1172,4 -4,4"/>
<!-- 140612927351344 -->
<g id="node1" class="node">
<title>140612927351344</title>
<polygon fill="none" stroke="black" points="343.5,-82.5 343.5,-118.5 528.5,-118.5 528.5,-82.5 343.5,-82.5"/>
<text text-anchor="middle" x="355" y="-96.8" font-family="Times,serif" font-size="14.00">b</text>
<polyline fill="none" stroke="black" points="366.5,-82.5 366.5,-118.5 "/>
<text text-anchor="middle" x="406.5" y="-96.8" font-family="Times,serif" font-size="14.00">data 6.8814</text>
<polyline fill="none" stroke="black" points="446.5,-82.5 446.5,-118.5 "/>
<text text-anchor="middle" x="487.5" y="-96.8" font-family="Times,serif" font-size="14.00">grad 0.5000</text>
</g>
<!-- 140612927352304+ -->
<g id="node9" class="node">
<title>140612927352304+</title>
<ellipse fill="none" stroke="black" cx="609" cy="-72.5" rx="27" ry="18"/>
<text text-anchor="middle" x="609" y="-68.8" font-family="Times,serif" font-size="14.00">+</text>
</g>
<!-- 140612927351344&#45;&gt;140612927352304+ -->
<g id="edge6" class="edge">
<title>140612927351344&#45;&gt;140612927352304+</title>
<path fill="none" stroke="black" d="M528.51,-85.52C544.17,-82.95 559.57,-80.43 572.57,-78.3"/>
<polygon fill="black" stroke="black" points="573.15,-81.75 582.45,-76.68 572.02,-74.85 573.15,-81.75"/>
</g>
<!-- 140612927350864 -->
<g id="node2" class="node">
<title>140612927350864</title>
<polygon fill="none" stroke="black" points="2,-55.5 2,-91.5 198,-91.5 198,-55.5 2,-55.5"/>
<text text-anchor="middle" x="17" y="-69.8" font-family="Times,serif" font-size="14.00">x1</text>
<polyline fill="none" stroke="black" points="32,-55.5 32,-91.5 "/>
<text text-anchor="middle" x="72" y="-69.8" font-family="Times,serif" font-size="14.00">data 2.0000</text>
<polyline fill="none" stroke="black" points="112,-55.5 112,-91.5 "/>
<text text-anchor="middle" x="155" y="-69.8" font-family="Times,serif" font-size="14.00">grad &#45;1.5000</text>
</g>
<!-- 140612927350576* -->
<g id="node7" class="node">
<title>140612927350576*</title>
<ellipse fill="none" stroke="black" cx="263" cy="-45.5" rx="27" ry="18"/>
<text text-anchor="middle" x="263" y="-41.8" font-family="Times,serif" font-size="14.00">*</text>
</g>
<!-- 140612927350864&#45;&gt;140612927350576* -->
<g id="edge8" class="edge">
<title>140612927350864&#45;&gt;140612927350576*</title>
<path fill="none" stroke="black" d="M198.37,-56.57C208.35,-54.83 217.97,-53.16 226.57,-51.66"/>
<polygon fill="black" stroke="black" points="227.27,-55.09 236.52,-49.93 226.07,-48.2 227.27,-55.09"/>
</g>
<!-- 140612927348896 -->
<g id="node3" class="node">
<title>140612927348896</title>
<polygon fill="none" stroke="black" points="983,-54.5 983,-90.5 1168,-90.5 1168,-54.5 983,-54.5"/>
<text text-anchor="middle" x="994.5" y="-68.8" font-family="Times,serif" font-size="14.00">o</text>
<polyline fill="none" stroke="black" points="1006,-54.5 1006,-90.5 "/>
<text text-anchor="middle" x="1046" y="-68.8" font-family="Times,serif" font-size="14.00">data 0.7071</text>
<polyline fill="none" stroke="black" points="1086,-54.5 1086,-90.5 "/>
<text text-anchor="middle" x="1127" y="-68.8" font-family="Times,serif" font-size="14.00">grad 1.0000</text>
</g>
<!-- 140612927348896tanh -->
<g id="node4" class="node">
<title>140612927348896tanh</title>
<ellipse fill="none" stroke="black" cx="920" cy="-72.5" rx="27" ry="18"/>
<text text-anchor="middle" x="920" y="-68.8" font-family="Times,serif" font-size="14.00">tanh</text>
</g>
<!-- 140612927348896tanh&#45;&gt;140612927348896 -->
<g id="edge1" class="edge">
<title>140612927348896tanh&#45;&gt;140612927348896</title>
<path fill="none" stroke="black" d="M947.04,-72.5C954.58,-72.5 963.3,-72.5 972.57,-72.5"/>
<polygon fill="black" stroke="black" points="972.81,-76 982.81,-72.5 972.81,-69 972.81,-76"/>
</g>
<!-- 140612927352496 -->
<g id="node5" class="node">
<title>140612927352496</title>
<polygon fill="none" stroke="black" points="0,-0.5 0,-36.5 200,-36.5 200,-0.5 0,-0.5"/>
<text text-anchor="middle" x="16.5" y="-14.8" font-family="Times,serif" font-size="14.00">w1</text>
<polyline fill="none" stroke="black" points="33,-0.5 33,-36.5 "/>
<text text-anchor="middle" x="75.5" y="-14.8" font-family="Times,serif" font-size="14.00">data &#45;3.0000</text>
<polyline fill="none" stroke="black" points="118,-0.5 118,-36.5 "/>
<text text-anchor="middle" x="159" y="-14.8" font-family="Times,serif" font-size="14.00">grad 1.0000</text>
</g>
<!-- 140612927352496&#45;&gt;140612927350576* -->
<g id="edge7" class="edge">
<title>140612927352496&#45;&gt;140612927350576*</title>
<path fill="none" stroke="black" d="M200.21,-35.14C209.57,-36.71 218.57,-38.22 226.67,-39.58"/>
<polygon fill="black" stroke="black" points="226.31,-43.06 236.76,-41.27 227.47,-36.16 226.31,-43.06"/>
</g>
<!-- 140612927350576 -->
<g id="node6" class="node">
<title>140612927350576</title>
<polygon fill="none" stroke="black" points="326,-27.5 326,-63.5 546,-63.5 546,-27.5 326,-27.5"/>
<text text-anchor="middle" x="352.5" y="-41.8" font-family="Times,serif" font-size="14.00">x1*w1</text>
<polyline fill="none" stroke="black" points="379,-27.5 379,-63.5 "/>
<text text-anchor="middle" x="421.5" y="-41.8" font-family="Times,serif" font-size="14.00">data &#45;6.0000</text>
<polyline fill="none" stroke="black" points="464,-27.5 464,-63.5 "/>
<text text-anchor="middle" x="505" y="-41.8" font-family="Times,serif" font-size="14.00">grad 0.5000</text>
</g>
<!-- 140612927350576&#45;&gt;140612927352304+ -->
<g id="edge5" class="edge">
<title>140612927350576&#45;&gt;140612927352304+</title>
<path fill="none" stroke="black" d="M546.27,-62.75C555.64,-64.23 564.6,-65.65 572.65,-66.92"/>
<polygon fill="black" stroke="black" points="572.23,-70.4 582.65,-68.5 573.32,-63.48 572.23,-70.4"/>
</g>
<!-- 140612927350576*&#45;&gt;140612927350576 -->
<g id="edge2" class="edge">
<title>140612927350576*&#45;&gt;140612927350576</title>
<path fill="none" stroke="black" d="M290.34,-45.5C297.77,-45.5 306.37,-45.5 315.6,-45.5"/>
<polygon fill="black" stroke="black" points="315.84,-49 325.84,-45.5 315.84,-42 315.84,-49"/>
</g>
<!-- 140612927352304 -->
<g id="node8" class="node">
<title>140612927352304</title>
<polygon fill="none" stroke="black" points="672,-54.5 672,-90.5 857,-90.5 857,-54.5 672,-54.5"/>
<text text-anchor="middle" x="683.5" y="-68.8" font-family="Times,serif" font-size="14.00">n</text>
<polyline fill="none" stroke="black" points="695,-54.5 695,-90.5 "/>
<text text-anchor="middle" x="735" y="-68.8" font-family="Times,serif" font-size="14.00">data 0.8814</text>
<polyline fill="none" stroke="black" points="775,-54.5 775,-90.5 "/>
<text text-anchor="middle" x="816" y="-68.8" font-family="Times,serif" font-size="14.00">grad 0.5000</text>
</g>
<!-- 140612927352304&#45;&gt;140612927348896tanh -->
<g id="edge4" class="edge">
<title>140612927352304&#45;&gt;140612927348896tanh</title>
<path fill="none" stroke="black" d="M857.01,-72.5C866.01,-72.5 874.74,-72.5 882.66,-72.5"/>
<polygon fill="black" stroke="black" points="882.91,-76 892.91,-72.5 882.91,-69 882.91,-76"/>
</g>
<!-- 140612927352304+&#45;&gt;140612927352304 -->
<g id="edge3" class="edge">
<title>140612927352304+&#45;&gt;140612927352304</title>
<path fill="none" stroke="black" d="M636.04,-72.5C643.58,-72.5 652.3,-72.5 661.57,-72.5"/>
<polygon fill="black" stroke="black" points="661.81,-76 671.81,-72.5 661.81,-69 661.81,-76"/>
</g>
</g>
</svg>
